<?xml version="1.0" encoding="UTF-8" standalone="no"?>
<svg
   version="1.1"
   viewBox="0 0 610.49579 264.23328"
   id="svg71"
   sodipodi:docname="grove-base-readme.svg"
   width="610.49579"
   height="264.23328"
   inkscape:version="1.4.2 (ebf0e940, 2025-05-08)"
   xmlns:inkscape="http://www.inkscape.org/namespaces/inkscape"
   xmlns:sodipodi="http://sodipodi.sourceforge.net/DTD/sodipodi-0.dtd"
   xmlns="http://www.w3.org/2000/svg"
   xmlns:svg="http://www.w3.org/2000/svg">
  <defs
     id="defs71" />
  <sodipodi:namedview
     id="namedview71"
     pagecolor="#ffffff"
     bordercolor="#000000"
     borderopacity="0.25"
     inkscape:showpageshadow="2"
     inkscape:pageopacity="0.0"
     inkscape:pagecheckerboard="0"
     inkscape:deskcolor="#d1d1d1"
     inkscape:zoom="1.0694087"
     inkscape:cx="276.32091"
     inkscape:cy="131.84856"
     inkscape:window-width="1752"
     inkscape:window-height="1027"
     inkscape:window-x="24"
     inkscape:window-y="118"
     inkscape:window-maximized="0"
     inkscape:current-layer="svg71" />
  <path
     stroke="#354b1f"
     vector-effect="non-scaling-stroke"
     d="m 216.03723,259.01351 -19.56,-4.81 a 2.78,2.82 35.3 0 0 -2.22,0.4 q -1.11,0.76 -2.71,1.16 c -2.83,0.71 -5.34,-1.42 -4.37,-4.52 q 0.88,-2.83 2.19,-4.6 a 0.29,0.29 0 0 0 -0.38,-0.43 l -11.03,5.96 a 1.17,1.2 87.2 0 0 -0.5,0.54 q -1.41,3.16 -5.36,3.05 -4.99,-0.14 -4.45,-5.05"
     id="path1"
     style="fill:none;stroke-width:2;stroke-linecap:butt" />
  <path
     stroke="#462b12"
     vector-effect="non-scaling-stroke"
     d="m 167.64723,250.71351 q -2.17,-3.92 -4.42,-8 -2.79,-5.05 -5.9,-16.79 -2.61,-9.84 -3.03,-25.98 c -0.17,-6.49 1.16,-10.17 5.63,-14.38 4.69,-4.43 8.95,-9.04 11.82,-11.87 5.89,-5.79 10.92,-13.3 11.66,-21.47 a 0.26,0.26 0 0 0 -0.33,-0.27 l -7.47,2.28 a 1.07,1.04 4.7 0 0 -0.61,0.5 q -6.7,12.16 -19.12,18.7 c -3.61,1.9 -8.95,3.79 -9.89,-1.91 q -0.21,-1.26 0.03,-4.63 a 3.62,3.68 38.4 0 0 -0.14,-1.31 q -0.7,-2.34 -0.6,-4.95 0.21,-5.77 0.28,-17.91 a 0.21,0.2 74.6 0 0 -0.31,-0.18 q -7.99,4.73 -18.11,2.97"
     id="path2"
     style="fill:none;stroke-width:2;stroke-linecap:butt" />
  <path
     stroke="#583a1a"
     vector-effect="non-scaling-stroke"
     d="m 127.13723,145.51351 q -0.64,8.02 -0.55,15.86 c 0.04,3.73 -1.07,9.39 -5.09,10.53 q -1.57,0.44 -5.03,-0.88 c -8.45,-3.22 -15.59,-8.22 -18.069999,-17.04 a 1.47,1.49 82.3 0 0 -1.43,-1.08 h -4.1 a 1.01,1.04 15.6 0 0 -0.88,0.51 l -4.22,7.31 a 1.3,1.33 44.8 0 0 -0.01,1.31 c 3.81,6.71 8.48,10.7 15.809999,18.12 4.79,4.87 7.36,8.36 7.62,14.55 q 1.33,30.76 -15.389999,56.05"
     id="path3"
     style="fill:none;stroke-width:2;stroke-linecap:butt" />
  <path
     stroke="#354b1f"
     vector-effect="non-scaling-stroke"
     d="m 95.797231,250.75351 c -1.18,2.05 -2.16,4.6 -4.74,5.12 -2.02,0.41 -3.78,-1.91 -4.8,-3.08 a 1.9,1.77 79.6 0 0 -0.55,-0.41 l -12.68,-6.03 a 0.31,0.31 0 0 0 -0.35,0.51 c 2.12,1.98 5,6.94 1.2,8.52 q -3.56,1.48 -6.42,-1.06 a 1,1 0 0 0 -0.9,-0.23 l -20.81,4.72"
     id="path4"
     style="fill:none;stroke-width:2;stroke-linecap:butt" />
  <path
     stroke="#51792e"
     vector-effect="non-scaling-stroke"
     d="m 95.637231,263.23351 -2.33,-0.05"
     id="path5"
     style="fill:none;stroke-width:2;stroke-linecap:butt" />
  <path
     stroke="#6b6327"
     vector-effect="non-scaling-stroke"
     d="m 167.64723,250.71351 -9.09,1.5"
     id="path6"
     style="fill:none;stroke-width:2;stroke-linecap:butt" />
  <path
     stroke="#462b12"
     vector-effect="non-scaling-stroke"
     d="m 158.55723,252.21351 q -10.14,-14.19 -13.66,-31.35 -1.27,-6.19 -1.9,-12.45 a 0.13,0.14 85.2 0 0 -0.14,-0.11 h -0.26 a 0.38,0.38 0 0 0 -0.38,0.38 q -0.09,10.12 1.18,20.19 1.58,12.57 7.21,23.79"
     id="path7"
     style="fill:none;stroke-width:2;stroke-linecap:butt" />
  <path
     stroke="#6b6327"
     vector-effect="non-scaling-stroke"
     d="m 150.60723,252.66351 q -2.14,0.8 -4.52,0.47"
     id="path8"
     style="fill:none;stroke-width:2;stroke-linecap:butt" />
  <path
     stroke="#8e5222"
     vector-effect="non-scaling-stroke"
     d="m 146.08723,253.13351 q -1.93,-4.13 -4.14,-8.18 -1.27,-2.33 -1.87,-9.3 -0.63,-7.36 -1.04,-19.74 c -0.14,-4.11 0.28,-6.8 0.73,-11.89 q 0.75,-8.31 -4.46,-13.9 a 1.67,1.67 0 0 1 -0.34,-1.76 q 3.52,-8.96 1.75,-17.4 -0.38,-1.84 -3.1,-5.7 -1.81,-2.56 -3.06,-5.72 -2.56,-6.52 -3.42,-14.03"
     id="path9"
     style="fill:none;stroke-width:2;stroke-linecap:butt" />
  <path
     stroke="#7d7230"
     vector-effect="non-scaling-stroke"
     d="m 146.08723,253.13351 q -2.64,0.61 -5.25,0.74 -11.9,0.63 -23.9,-0.99"
     id="path10"
     style="fill:none;stroke-width:2;stroke-linecap:butt" />
  <path
     stroke="#583a1a"
     vector-effect="non-scaling-stroke"
     d="m 116.93723,252.88351 q 3.6,-10.81 3.13,-21.5 a 0.11101802,0.11101802 0 0 0 -0.22,-0.03 q -3.46,10.94 -9.9,21.24"
     id="path11"
     style="fill:none;stroke-width:2;stroke-linecap:butt" />
  <path
     stroke="#7d7230"
     vector-effect="non-scaling-stroke"
     d="m 109.94723,252.59351 -14.149999,-1.84"
     id="path12"
     style="fill:none;stroke-width:2;stroke-linecap:butt" />
  <path
     stroke="#354b1f"
     vector-effect="non-scaling-stroke"
     d="m 158.55723,252.21351 c -1.48,4.79 -6.4,4.68 -7.95,0.45"
     id="path13"
     style="fill:none;stroke-width:2;stroke-linecap:butt" />
  <path
     stroke="#354b1f"
     vector-effect="non-scaling-stroke"
     d="m 116.93723,252.88351 q -1.54,2.76 -4.7,1.33 -0.79,-0.35 -2.29,-1.62"
     id="path14"
     style="fill:none;stroke-width:2;stroke-linecap:butt" />
  <path
     stroke="#51602f"
     vector-effect="non-scaling-stroke"
     d="m 124.53723,10.26351 q -19.41,3 -26.999999,20.63 -0.93,2.15 -1.33,4.38 c -0.56,3.11 -1.27,9.06 -5.81,5.83 -4.7,-3.34 -10.38,-4.76 -15.27,-3.2 -8.15,2.59 -12.93,10.1 -10.52,18.84 0.78,2.83 2.07,8.99 -3.66,7.26 -3.99,-1.21 -7.04,-2.1 -11.2,-1.33 q -17.73,3.28 -23.64,20.72"
     id="path16"
     style="fill:none;stroke-width:2;stroke-linecap:butt" />
  <path
     stroke="#3c5224"
     vector-effect="non-scaling-stroke"
     d="m 26.107231,83.39351 q -2.74,12.76 5.27,21.23 c 1.74,1.85 2.73,2.71 1.53,4.96 q -0.54,1.02 -3.66,1.81 -13.92,3.51 -19.13,17.54 -0.5899999,1.59 -0.7799999,3.98"
     id="path17"
     style="fill:none;stroke-width:2;stroke-linecap:butt" />
  <path
     stroke="#2c4119"
     vector-effect="non-scaling-stroke"
     d="m 9.3372311,132.91351 q -0.99,8.17 2.5899999,14.13 8.08,13.42 24.92,12.57 2.06,-0.11 2.91,2.3 a 1.09,1.11 47.2 0 1 -0.04,0.83 l -1.42,2.97 a 1.38,1.4 52.3 0 0 -0.11,0.81 c 1.02,6.11 6.47,12.23 11.54,15.19 q 12.43,7.26 25.13,0.49 a 2.06,2.06 0 0 1 2.41,0.34 c 4.45,4.32 11.48,3.72 16.9,1.85 a 0.72,0.72 0 0 0 0.26,-1.21 q -7.97,-7.45 -13.48,-16.21 a 0.87,0.87 0 0 0 -1.07,-0.34 l -7.64,3.23 a 4.55,4.55 0 0 1 -5.74,-1.99 l -0.22,-0.38 a 3.37,3.37 0 0 1 1.94,-4.9 q 9.74,-2.96 14.49,-9.67 a 0.96,0.95 32.2 0 0 -0.32,-1.39 c -3.13,-1.7 -11.15,-8.87 -4.75,-11.69 a 1.89,1.88 51 0 1 1.87,0.2 q 3.45,2.47 5.21,3.46 c 7.32,4.11 17.409999,1.17 23.989999,-3.21 2.89,-1.92 4.34,-3.93 7.12,-7.17 a 2.61,2.61 0 0 1 3.7,-0.26 c 4.86,4.25 7.36,5.71 13.98,5.36 5.49,-0.29 9.15,-2.7 13.19,-6.03 2.47,-2.04 4.91,-2.88 6.58,0.2 5.92,10.86 17.59,18.52 29.43,10.81 4.24,-2.76 6.53,0.31 8.3,4.13 a 0.98,0.97 73.1 0 0 1.03,0.55 c 2.86,-0.44 5.18,-1.46 8.32,-3.07 a 2.33,2.32 57.1 0 1 2.89,0.62 c 3.93,4.97 -4.32,8.81 -7.97,9.49 q -2.07,0.38 -2.82,0.71 a 1.41,1.42 85.8 0 0 -0.79,0.91 c -3.17,11.37 -10.07,19.4 -19.06,27.14 a 0.45,0.45 0 0 0 0.17,0.77 q 18.05,5.25 26.8,-9.57 a 1.74,1.74 0 0 1 2.05,-0.76 q 8.67,2.94 16.68,0.05 c 6.37,-2.3 11.08,-7.82 11.86,-14.44 0.43,-3.74 -0.76,-5.36 -2.74,-8.26 a 2.28,2.28 0 0 1 -0.39,-1.37 q 0.08,-1.88 1.26,-2.67 a 2.38,2.42 27.8 0 1 1.32,-0.42 q 6.74,-0.08 12.33,-5.06 c 8.27,-7.38 9.03,-18.57 3.13,-27.58 -4.36,-6.64 -11.22,-10.14 -18.56,-12.63 a 1.55,1.61 82 0 1 -0.76,-0.55 q -1.33,-1.79 -0.43,-3.59 c 1.22,-2.48 2.53,-4.34 3.25,-7.2 q 4.52,-17.93 -9.14,-30.09 -1.17,-1.04 -4.15,-2.28"
     id="path18"
     style="fill:none;stroke-width:2;stroke-linecap:butt" />
  <path
     stroke="#3c5224"
     vector-effect="non-scaling-stroke"
     d="m 215.28723,58.03351 q -7.31,-5.71 -18.48,-3.28 -2.53,0.55 -3.22,-1.64 a 1.64,1.69 40.9 0 1 -0.05,-0.86 q 0.45,-2.15 0.89,-5.36 c 0.7,-5 -2.14,-10.26 -6.41,-12.99 q -8.65,-5.54 -18.44,0.17 a 1.23,1.1 3.2 0 0 -0.2,0.16 l -3.8,4.12 a 1.13,1.16 15.3 0 1 -0.58,0.34 q -2.04,0.48 -3.17,-1.02 a 1.61,1.63 26.4 0 1 -0.32,-0.97 q -0.11,-11.63 -9.85,-19.14 -11.91,-9.1799999 -27.12,-7.3"
     id="path19"
     style="fill:none;stroke-width:2;stroke-linecap:butt" />
  <path
     stroke="#588033"
     vector-effect="non-scaling-stroke"
     d="m 215.28723,58.03351 q 3.37,8.2 3.63,15.12 a 5.19,5.32 50.6 0 1 -0.17,1.54 c -1.34,5.09 -3.26,9.59 -6.35,14.74 -2.35,3.94 -3.23,8.4 -0.55,11.7 q 2.81,3.45 2.23,6.11 a 2.11,2.14 69.4 0 1 -0.38,0.82 q -1.93,2.43 -3.22,2.72 c -5.85,1.28 -9.85,0.26 -15.35,-2.54 q -6.73,-3.42 -6.82,-3.45 a 0.47,0.48 11.5 0 0 -0.63,0.42 c -0.02,0.4 0.45,0.9 0.4,1.77 q -0.56,8.99 -7.27,14.18 -2.6,2.03 -5.53,2.03 -4.1,0 -6,-0.75 -6.82,-2.69 -10.08,-3.86 a 3.3,3.22 72.3 0 1 -0.75,-0.4 q -2.75,-2.01 -3.96,-5.2 a 0.73,0.72 58.5 0 0 -1.16,-0.28 q -1.87,1.64 -4.35,2.77 -6.12,2.81 -13.03,4.26 -10.22,2.15 -17.9,-4.36 -1.48,-1.26 -2.55,-2.87 a 1.2,1.19 49.8 0 0 -1.88,-0.16 q -7.38,8 -16.299999,12.72 c -5.29,2.8 -14.57,3.49 -14.47,-5.08 a 0.3,0.31 71.1 0 0 -0.5,-0.24 c -3.38,2.65 -7.53,5.28 -11.04,1.37 -4.66,-5.18 -8.56,-7.16 -6.36,-14.45 q 1.69,-5.59 6.44,-9.23 a 0.98,0.98 0 0 0 -0.2,-1.67 q -1.16,-0.51 -3.09,-0.13 c -11.31,2.28 -14.56,15.04 -10.17,24.4 q 1.32,2.8 4.69,9.95 a 1.84,1.91 34.4 0 1 0.17,1.02 q -0.98,8.26 -7.91,11.67 c -1.4,0.69 -3.33,1.03 -5.02,1.57 a 2.88,2.9 63.1 0 1 -3.19,-1.03 c -3.13,-4.22 -7.53,-7.57 -10.18,-12.66 a 0.48,0.48 0 0 0 -0.89,0.11 c -1.29,5.65 -6.61,10.39 -12.48,8.52 q -0.13,-0.04 -4.96,-3.32 -4.01,-2.72 -8.8199999,-2.95"
     id="path20"
     style="fill:none;stroke-width:2;stroke-linecap:butt" />
  <path
     stroke="#7d9f48"
     vector-effect="non-scaling-stroke"
     d="m 26.107231,83.39351 q 1.87,0.99 2.51,2.98 1.31,4.08 2.08,6.89 c 0.26,0.94 3.25,7.48 5.74,7.5 a 1.04,1.04 0 0 0 0.99,-1.39 q -2.76,-7.71 1.55,-14.05 c 5.67,-8.34 12.5,-10.73 21.57,-13.47 3.83,-1.15 6.46,-0.47 10,0.25 4.58,0.92 7.68,-4.58 7.21,-8.47 -0.44,-3.72 -6.25,-7.91 -3.31,-11.43 q 5.8,-6.95 15.49,-9.49 a 2.61,2.62 42.6 0 1 1.13,-0.05 q 3.05,0.55 4.93,-0.42 6.649999,-3.44 8.809999,-3.79 a 0.94,0.95 0.9 0 0 0.76,-0.74 q 1.25,-5.97 1.6,-6.76 c 3.98,-9.1 11.2,-12.07 19.81,-15.37 a 1.39,1.39 0 0 0 0.5,-2.26 l -2.94,-3.06"
     id="path21"
     style="fill:none;stroke-width:2;stroke-linecap:butt" />
  <path
     stroke="#2c4119"
     vector-effect="non-scaling-stroke"
     d="m 118.77723,162.17351 v -18.65 a 0.33,0.32 70.7 0 0 -0.53,-0.26 q -5.71,4.58 -11.68,7.29 a 1.38,1.38 0 0 0 -0.64,1.91 q 4.18,7.81 12.09,10.28 a 0.58,0.59 8.6 0 0 0.76,-0.57"
     id="path22"
     style="fill:none;stroke-width:2;stroke-linecap:butt" />
  <path
     stroke="#2c4119"
     vector-effect="non-scaling-stroke"
     d="m 153.46723,146.51351 v 17.92 a 0.51,0.51 0 0 0 0.78,0.43 q 6.22,-3.98 11.09,-10.21 a 0.79,0.79 0 0 0 -0.35,-1.23 q -5.82,-2.12 -11.11,-7.09 a 0.24,0.24 0 0 0 -0.41,0.18"
     id="path23"
     style="fill:none;stroke-width:2;stroke-linecap:butt" />
  <path
     stroke="#354b1f"
     vector-effect="non-scaling-stroke"
     d="m 177.51723,235.63351 -5.42,4.56 a 0.75,0.76 54.9 0 0 -0.17,0.96 l 1.55,2.69 a 0.51,0.51 0 0 0 0.79,0.11 q 3.49,-3.25 3.7,-8.1 a 0.27,0.27 0 0 0 -0.45,-0.22"
     id="path24"
     style="fill:none;stroke-width:2;stroke-linecap:butt" />
  <path
     stroke="#2c4119"
     vector-effect="non-scaling-stroke"
     d="m 86.687231,243.90351 q 0.4,0.8 1.49,1.35 a 0.75,0.75 0 0 0 0.83,-0.1 q 2.38,-2.04 0.86,-3.28"
     id="path25"
     style="fill:none;stroke-width:2;stroke-linecap:butt" />
  <path
     stroke="#354b1f"
     vector-effect="non-scaling-stroke"
     d="m 89.867231,241.87351 -4.11,-3.23 a 2.91,2.67 88.1 0 1 -0.5,-0.51 l -1.13,-1.53 a 0.32,0.32 0 0 0 -0.58,0.2 q 0.02,4.13 3.14,7.1"
     id="path26"
     style="fill:none;stroke-width:2;stroke-linecap:butt" />
  <path
     stroke="#51792e"
     vector-effect="non-scaling-stroke"
     d="m 89.867231,241.87351 q -1.84,1.65 -3.18,2.03"
     id="path27"
     style="fill:none;stroke-width:2;stroke-linecap:butt" />
  <path
     stroke="#588033"
     vector-effect="non-scaling-stroke"
     d="m 159.37723,77.49351 c 5.56,-0.8 9.54,-1.52 14.28,2.29 2.79,2.24 3,4.84 3.09,8.52 a 2.35,3.06 1.8 0 0 2.08,2.89 q 1.71,0.23 3.01,-1.35 c 7.09,-8.64 -2.63,-20.44 -11.84,-21.93 q -1.7,-0.27 -4.28,-0.69 a 0.64,0.65 8.3 0 1 -0.53,-0.72 c 0.48,-3.66 -3.23,-8.66 -5.75,-11.67 -4.33,-5.18 -14.51,-7.26 -18.68,-0.37 a 1,1 0 0 0 0.7,1.5 q 4.27,0.69 4.42,0.72 c 5.3,0.77 11.19,5.69 12.31,10.95 q 0.43,2.03 1.28,5.54 a 3.05,3.12 46.8 0 1 -0.07,1.67 l -0.64,1.9 a 0.57,0.57 0 0 0 0.62,0.75"
     id="path28"
     style="fill:none;stroke-width:2;stroke-linecap:butt" />
  <path
     stroke="#7d9f48"
     vector-effect="non-scaling-stroke"
     d="m 127.73723,67.24351 q 0.39,-3.32 -3.59,-5.78 c -5.59,-3.45 -11.08,-4.6 -16.05,0.49 q -4.63,4.75 -6.33,10.03 a 0.87,0.86 27.2 0 0 0.31,0.96 l 3.4,2.54 a 2.53,2.53 0 0 0 3.93,-1.27 q 1.13,-3.6 4.37,-6.69 c 1.69,-1.6 3.57,-1.29 5.26,-0.57 q 3.01,1.29 5.85,2.16 a 2.22,2.22 0 0 0 2.85,-1.87"
     id="path29"
     style="fill:none;stroke-width:2;stroke-linecap:butt" />
  <path
     stroke="#8e5222"
     vector-effect="non-scaling-stroke"
     d="m 125.40723,190.19351 a 0.3,0.3 0 0 0 -0.59,-0.02 l -2.76,9.75 a 2.12,2.49 49.6 0 0 -0.09,0.56 c -0.1,3.26 -0.33,7.74 0.95,11.6 q 0.76,2.3 1.05,4.79 a 0.7,0.7 0 0 0 1.02,0.54 c 4.32,-2.27 4.29,-8.94 3.36,-13.07 q -0.32,-1.4 -2.94,-14.15"
     id="path30"
     style="fill:none;stroke-width:2;stroke-linecap:butt" />
  <path
     stroke="#8e5222"
     vector-effect="non-scaling-stroke"
     d="m 114.98723,228.68351 a 0.48,0.49 53.7 0 0 0.87,0.13 q 4.73,-6.97 3.25,-15.88 a 0.3,0.3 0 0 0 -0.56,-0.08 c -1.77,3.61 -4.71,11.88 -3.56,15.83"
     id="path31"
     style="fill:none;stroke-width:2;stroke-linecap:butt" />
  <path
     fill="#10130a"
     d="m 216.03723,259.01351 -19.56,-4.81 a 2.78,2.82 35.3 0 0 -2.22,0.4 q -1.11,0.76 -2.71,1.16 c -2.83,0.71 -5.34,-1.42 -4.37,-4.52 q 0.88,-2.83 2.19,-4.6 a 0.29,0.29 0 0 0 -0.38,-0.43 l -11.03,5.96 a 1.17,1.2 87.2 0 0 -0.5,0.54 q -1.41,3.16 -5.36,3.05 -4.99,-0.14 -4.45,-5.05 -2.17,-3.92 -4.42,-8 -2.79,-5.05 -5.9,-16.79 -2.61,-9.84 -3.03,-25.98 c -0.17,-6.49 1.16,-10.17 5.63,-14.38 4.69,-4.43 8.95,-9.04 11.82,-11.87 5.89,-5.79 10.92,-13.3 11.66,-21.47 a 0.26,0.26 0 0 0 -0.33,-0.27 l -7.47,2.28 a 1.07,1.04 4.7 0 0 -0.61,0.5 q -6.7,12.16 -19.12,18.7 c -3.61,1.9 -8.95,3.79 -9.89,-1.91 q -0.21,-1.26 0.03,-4.63 a 3.62,3.68 38.4 0 0 -0.14,-1.31 q -0.7,-2.34 -0.6,-4.95 0.21,-5.77 0.28,-17.91 a 0.21,0.2 74.6 0 0 -0.31,-0.18 q -7.99,4.73 -18.11,2.97 -0.64,8.02 -0.55,15.86 c 0.04,3.73 -1.07,9.39 -5.09,10.53 q -1.57,0.44 -5.03,-0.88 c -8.45,-3.22 -15.59,-8.22 -18.069999,-17.04 a 1.47,1.49 82.3 0 0 -1.43,-1.08 h -4.1 a 1.01,1.04 15.6 0 0 -0.88,0.51 l -4.22,7.31 a 1.3,1.33 44.8 0 0 -0.01,1.31 c 3.81,6.71 8.48,10.7 15.809999,18.12 4.79,4.87 7.36,8.36 7.62,14.55 q 1.33,30.76 -15.389999,56.05 c -1.18,2.05 -2.16,4.6 -4.74,5.12 -2.02,0.41 -3.78,-1.91 -4.8,-3.08 a 1.9,1.77 79.6 0 0 -0.55,-0.41 l -12.68,-6.03 a 0.31,0.31 0 0 0 -0.35,0.51 c 2.12,1.98 5,6.94 1.2,8.52 q -3.56,1.48 -6.42,-1.06 a 1,1 0 0 0 -0.9,-0.23 l -20.81,4.72 q -1.92,-0.65 -2.98,-2.02 a 2.42,2.45 50.9 0 1 0.37,-3.35 q 2.41,-2.07 5.6,-2.93 8.03,-2.17 16.54,-3.61 a 0.51,0.51 0 0 0 0.24,-0.9 q -2.26,-1.84 -3.77,-3.65 c -3.6,-4.33 -0.2,-7.92 4.59,-6.97 q 2.01,0.4 8.27,2.21 a 0.49,0.49 0 0 0 0.59,-0.67 q -2.57,-5.81 -2.77,-10.86 a 2.94,2.87 58 0 1 0.31,-1.43 c 1.73,-3.38 5.72,-2 8.45,-0.23 q 6.53,4.22 12.42,10.48 a 0.56,0.57 35.5 0 0 0.93,-0.16 q 8.049999,-17.9 7.729999,-37.59 -0.04,-2.86 -1.44,-5.69 a 1.21,1.21 0 0 0 -1.649999,-0.54 q -12.6,6.63 -25.06,1.07 a 1.27,1.26 45.3 0 0 -1.02,-0.01 c -10.08,4.35 -21.97,2.42 -30.9,-3.91 q -10.17,-7.2 -12.31,-19.36 a 0.75,0.75 0 0 0 -0.69,-0.62 q -6.32,-0.4 -12.29,-3.81 c -16.69999989,-9.57 -21.4899999,-28.57 -12.2999999,-45.4 q 4.49,-8.22 14.4899999,-13.75 a 0.53,0.54 64.5 0 0 0.24,-0.66 q -9.06,-23.57 7.84,-40.5 9.93,-9.95 25.99,-10.65 a 0.52,0.52 0 0 0 0.5,-0.49 q 0.93,-14.75 12.88,-21.98 9.35,-5.66 20.83,-1.88 a 0.62,0.62 0 0 0 0.77,-0.38 q 4.4,-11.98 14.479999,-19.5499999 c 16.32,-12.28 37.06,-11.91 53.46,0.4 q 7.85,5.8999999 11.99,14.4199999 a 0.54,0.54 0 0 0 0.68,0.27 q 14.12,-5.61 25.78,3.13 8.12,6.09 9.5,17.45 a 0.7,0.69 88.5 0 0 0.64,0.61 q 11.64,0.83 20.47,7.98 c 12.71,10.3 16.84,26.38 11.26,41.92 a 0.57,0.57 0 0 0 0.31,0.72 c 25.19,10.9 30.61,45.34 3.11,57.85 a 0.82,0.82 0 0 0 -0.47,0.8 c 1.33,17.91 -12.8,30.42 -30.32,29.51 -1.19,-0.06 -2.78,-0.56 -4.16,-0.46 a 1.28,1.28 0 0 0 -0.92,0.49 c -8.81,11.35 -24.91,13.32 -37.34,7.12 a 0.61,0.62 35.6 0 0 -0.7,0.12 c -3.8,3.83 -3.35,7.09 -3.09,13.01 q 0.59,14.06 5.41,27.02 a 0.61,0.62 58.2 0 0 1,0.23 c 3.06,-2.87 14.79,-13.56 18.38,-7.02 1.33,2.42 -1.53,9.87 -2.54,12.79 a 0.35,0.35 0 0 0 0.46,0.44 c 2.93,-1.12 12.24,-4.51 14.3,-1.23 2.22,3.54 -1.67,7.3 -4.26,9.48 a 0.33,0.32 29.4 0 0 0.16,0.57 q 11.24,1.64 19.91,4.39 2.06,0.65 3.88,2.59 a 1.39,1.46 19.9 0 1 0.38,0.87 q 0.22,3.39 -3.87,4.52 z m -91.5,-248.75 q -19.41,3 -26.999999,20.63 -0.93,2.15 -1.33,4.38 c -0.56,3.11 -1.27,9.06 -5.81,5.83 -4.7,-3.34 -10.38,-4.76 -15.27,-3.2 -8.15,2.59 -12.93,10.1 -10.52,18.84 0.78,2.83 2.07,8.99 -3.66,7.26 -3.99,-1.21 -7.04,-2.1 -11.2,-1.33 q -17.73,3.28 -23.64,20.72 -2.74,12.76 5.27,21.23 c 1.74,1.85 2.73,2.71 1.53,4.96 q -0.54,1.02 -3.66,1.81 -13.92,3.51 -19.13,17.54 -0.5899999,1.59 -0.7799999,3.98 -0.99,8.17 2.5899999,14.13 8.08,13.42 24.92,12.57 2.06,-0.11 2.91,2.3 a 1.09,1.11 47.2 0 1 -0.04,0.83 l -1.42,2.97 a 1.38,1.4 52.3 0 0 -0.11,0.81 c 1.02,6.11 6.47,12.23 11.54,15.19 q 12.43,7.26 25.13,0.49 a 2.06,2.06 0 0 1 2.41,0.34 c 4.45,4.32 11.48,3.72 16.9,1.85 a 0.72,0.72 0 0 0 0.26,-1.21 q -7.97,-7.45 -13.48,-16.21 a 0.87,0.87 0 0 0 -1.07,-0.34 l -7.64,3.23 a 4.55,4.55 0 0 1 -5.74,-1.99 l -0.22,-0.38 a 3.37,3.37 0 0 1 1.94,-4.9 q 9.74,-2.96 14.49,-9.67 a 0.96,0.95 32.2 0 0 -0.32,-1.39 c -3.13,-1.7 -11.15,-8.87 -4.75,-11.69 a 1.89,1.88 51 0 1 1.87,0.2 q 3.45,2.47 5.21,3.46 c 7.32,4.11 17.409999,1.17 23.989999,-3.21 2.89,-1.92 4.34,-3.93 7.12,-7.17 a 2.61,2.61 0 0 1 3.7,-0.26 c 4.86,4.25 7.36,5.71 13.98,5.36 5.49,-0.29 9.15,-2.7 13.19,-6.03 2.47,-2.04 4.91,-2.88 6.58,0.2 5.92,10.86 17.59,18.52 29.43,10.81 4.24,-2.76 6.53,0.31 8.3,4.13 a 0.98,0.97 73.1 0 0 1.03,0.55 c 2.86,-0.44 5.18,-1.46 8.32,-3.07 a 2.33,2.32 57.1 0 1 2.89,0.62 c 3.93,4.97 -4.32,8.81 -7.97,9.49 q -2.07,0.38 -2.82,0.71 a 1.41,1.42 85.8 0 0 -0.79,0.91 c -3.17,11.37 -10.07,19.4 -19.06,27.14 a 0.45,0.45 0 0 0 0.17,0.77 q 18.05,5.25 26.8,-9.57 a 1.74,1.74 0 0 1 2.05,-0.76 q 8.67,2.94 16.68,0.05 c 6.37,-2.3 11.08,-7.82 11.86,-14.44 0.43,-3.74 -0.76,-5.36 -2.74,-8.26 a 2.28,2.28 0 0 1 -0.39,-1.37 q 0.08,-1.88 1.26,-2.67 a 2.38,2.42 27.8 0 1 1.32,-0.42 q 6.74,-0.08 12.33,-5.06 c 8.27,-7.38 9.03,-18.57 3.13,-27.58 -4.36,-6.64 -11.22,-10.14 -18.56,-12.63 a 1.55,1.61 82 0 1 -0.76,-0.55 q -1.33,-1.79 -0.43,-3.59 c 1.22,-2.48 2.53,-4.34 3.25,-7.2 q 4.52,-17.93 -9.14,-30.09 -1.17,-1.04 -4.15,-2.28 -7.31,-5.71 -18.48,-3.28 -2.53,0.55 -3.22,-1.64 a 1.64,1.69 40.9 0 1 -0.05,-0.86 q 0.45,-2.15 0.89,-5.36 c 0.7,-5 -2.14,-10.26 -6.41,-12.99 q -8.65,-5.54 -18.44,0.17 a 1.23,1.1 3.2 0 0 -0.2,0.16 l -3.8,4.12 a 1.13,1.16 15.3 0 1 -0.58,0.34 q -2.04,0.48 -3.17,-1.02 a 1.61,1.63 26.4 0 1 -0.32,-0.97 q -0.11,-11.63 -9.85,-19.14 -11.91,-9.1799999 -27.12,-7.3 z m -5.76,151.91 v -18.65 a 0.33,0.32 70.7 0 0 -0.53,-0.26 q -5.71,4.58 -11.68,7.29 a 1.38,1.38 0 0 0 -0.64,1.91 q 4.18,7.81 12.09,10.28 a 0.58,0.59 8.6 0 0 0.76,-0.57 z m 34.69,-15.66 v 17.92 a 0.51,0.51 0 0 0 0.78,0.43 q 6.22,-3.98 11.09,-10.21 a 0.79,0.79 0 0 0 -0.35,-1.23 q -5.82,-2.12 -11.11,-7.09 a 0.24,0.24 0 0 0 -0.41,0.18 z m 24.05,89.12 -5.42,4.56 a 0.75,0.76 54.9 0 0 -0.17,0.96 l 1.55,2.69 a 0.51,0.51 0 0 0 0.79,0.11 q 3.49,-3.25 3.7,-8.1 a 0.27,0.27 0 0 0 -0.45,-0.22 z m -90.829999,8.27 q 0.4,0.8 1.49,1.35 a 0.75,0.75 0 0 0 0.83,-0.1 q 2.38,-2.04 0.86,-3.28 l -4.11,-3.23 a 2.91,2.67 88.1 0 1 -0.5,-0.51 l -1.13,-1.53 a 0.32,0.32 0 0 0 -0.58,0.2 q 0.02,4.13 3.14,7.1 z"
     id="path40" />
  <path
     fill="#68913d"
     d="m 215.28723,58.03351 q 3.37,8.2 3.63,15.12 a 5.19,5.32 50.6 0 1 -0.17,1.54 c -1.34,5.09 -3.26,9.59 -6.35,14.74 -2.35,3.94 -3.23,8.4 -0.55,11.7 q 2.81,3.45 2.23,6.11 a 2.11,2.14 69.4 0 1 -0.38,0.82 q -1.93,2.43 -3.22,2.72 c -5.85,1.28 -9.85,0.26 -15.35,-2.54 q -6.73,-3.42 -6.82,-3.45 a 0.47,0.48 11.5 0 0 -0.63,0.42 c -0.02,0.4 0.45,0.9 0.4,1.77 q -0.56,8.99 -7.27,14.18 -2.6,2.03 -5.53,2.03 -4.1,0 -6,-0.75 -6.82,-2.69 -10.08,-3.86 a 3.3,3.22 72.3 0 1 -0.75,-0.4 q -2.75,-2.01 -3.96,-5.2 a 0.73,0.72 58.5 0 0 -1.16,-0.28 q -1.87,1.64 -4.35,2.77 -6.12,2.81 -13.03,4.26 -10.22,2.15 -17.9,-4.36 -1.48,-1.26 -2.55,-2.87 a 1.2,1.19 49.8 0 0 -1.88,-0.16 q -7.38,8 -16.299999,12.72 c -5.29,2.8 -14.57,3.49 -14.47,-5.08 a 0.3,0.31 71.1 0 0 -0.5,-0.24 c -3.38,2.65 -7.53,5.28 -11.04,1.37 -4.66,-5.18 -8.56,-7.16 -6.36,-14.45 q 1.69,-5.59 6.44,-9.23 a 0.98,0.98 0 0 0 -0.2,-1.67 q -1.16,-0.51 -3.09,-0.13 c -11.31,2.28 -14.56,15.04 -10.17,24.4 q 1.32,2.8 4.69,9.95 a 1.84,1.91 34.4 0 1 0.17,1.02 q -0.98,8.26 -7.91,11.67 c -1.4,0.69 -3.33,1.03 -5.02,1.57 a 2.88,2.9 63.1 0 1 -3.19,-1.03 c -3.13,-4.22 -7.53,-7.57 -10.18,-12.66 a 0.48,0.48 0 0 0 -0.89,0.11 c -1.29,5.65 -6.61,10.39 -12.48,8.52 q -0.13,-0.04 -4.96,-3.32 -4.01,-2.72 -8.8199999,-2.95 0.19,-2.39 0.7799999,-3.98 5.21,-14.03 19.13,-17.54 3.12,-0.79 3.66,-1.81 c 1.2,-2.25 0.21,-3.11 -1.53,-4.96 q -8.01,-8.47 -5.27,-21.23 1.87,0.99 2.51,2.98 1.31,4.08 2.08,6.89 c 0.26,0.94 3.25,7.48 5.74,7.5 a 1.04,1.04 0 0 0 0.99,-1.39 q -2.76,-7.71 1.55,-14.05 c 5.67,-8.34 12.5,-10.73 21.57,-13.47 3.83,-1.15 6.46,-0.47 10,0.25 4.58,0.92 7.68,-4.58 7.21,-8.47 -0.44,-3.72 -6.25,-7.91 -3.31,-11.43 q 5.8,-6.95 15.49,-9.49 a 2.61,2.62 42.6 0 1 1.13,-0.05 q 3.05,0.55 4.93,-0.42 6.649999,-3.44 8.809999,-3.79 a 0.94,0.95 0.9 0 0 0.76,-0.74 q 1.25,-5.97 1.6,-6.76 c 3.98,-9.1 11.2,-12.07 19.81,-15.37 a 1.39,1.39 0 0 0 0.5,-2.26 l -2.94,-3.06 q 15.21,-1.8799999 27.12,7.3 9.74,7.51 9.85,19.14 a 1.61,1.63 26.4 0 0 0.32,0.97 q 1.13,1.5 3.17,1.02 a 1.13,1.16 15.3 0 0 0.58,-0.34 l 3.8,-4.12 a 1.23,1.1 3.2 0 1 0.2,-0.16 q 9.79,-5.71 18.44,-0.17 c 4.27,2.73 7.11,7.99 6.41,12.99 q -0.44,3.21 -0.89,5.36 a 1.64,1.69 40.9 0 0 0.05,0.86 q 0.69,2.19 3.22,1.64 11.17,-2.43 18.48,3.28 z m -55.91,19.46 c 5.56,-0.8 9.54,-1.52 14.28,2.29 2.79,2.24 3,4.84 3.09,8.52 a 2.35,3.06 1.8 0 0 2.08,2.89 q 1.71,0.23 3.01,-1.35 c 7.09,-8.64 -2.63,-20.44 -11.84,-21.93 q -1.7,-0.27 -4.28,-0.69 a 0.64,0.65 8.3 0 1 -0.53,-0.72 c 0.48,-3.66 -3.23,-8.66 -5.75,-11.67 -4.33,-5.18 -14.51,-7.26 -18.68,-0.37 a 1,1 0 0 0 0.7,1.5 q 4.27,0.69 4.42,0.72 c 5.3,0.77 11.19,5.69 12.31,10.95 q 0.43,2.03 1.28,5.54 a 3.05,3.12 46.8 0 1 -0.07,1.67 l -0.64,1.9 a 0.57,0.57 0 0 0 0.62,0.75 z m -31.64,-10.25 q 0.39,-3.32 -3.59,-5.78 c -5.59,-3.45 -11.08,-4.6 -16.05,0.49 q -4.63,4.75 -6.33,10.03 a 0.87,0.86 27.2 0 0 0.31,0.96 l 3.4,2.54 a 2.53,2.53 0 0 0 3.93,-1.27 q 1.13,-3.6 4.37,-6.69 c 1.69,-1.6 3.57,-1.29 5.26,-0.57 q 3.01,1.29 5.85,2.16 a 2.22,2.22 0 0 0 2.85,-1.87 z"
     id="path41" />
  <path
     fill="#91ac53"
     d="m 124.53723,10.26351 2.94,3.06 a 1.39,1.39 0 0 1 -0.5,2.26 c -8.61,3.3 -15.83,6.27 -19.81,15.37 q -0.35,0.79 -1.6,6.76 a 0.94,0.95 0.9 0 1 -0.76,0.74 q -2.16,0.35 -8.809999,3.79 -1.88,0.97 -4.93,0.42 a 2.61,2.62 42.6 0 0 -1.13,0.05 q -9.69,2.54 -15.49,9.49 c -2.94,3.52 2.87,7.71 3.31,11.43 0.47,3.89 -2.63,9.39 -7.21,8.47 -3.54,-0.72 -6.17,-1.4 -10,-0.25 -9.07,2.74 -15.9,5.13 -21.57,13.47 q -4.31,6.34 -1.55,14.05 a 1.04,1.04 0 0 1 -0.99,1.39 c -2.49,-0.02 -5.48,-6.56 -5.74,-7.5 q -0.77,-2.81 -2.08,-6.89 -0.64,-1.99 -2.51,-2.98 5.91,-17.44 23.64,-20.72 c 4.16,-0.77 7.21,0.12 11.2,1.33 5.73,1.73 4.44,-4.43 3.66,-7.26 -2.41,-8.74 2.37,-16.25 10.52,-18.84 4.89,-1.56 10.57,-0.14 15.27,3.2 4.54,3.23 5.25,-2.72 5.81,-5.83 q 0.4,-2.23 1.33,-4.38 7.589999,-17.63 26.999999,-20.63 z"
     id="path42" />
  <path
     fill="#476e28"
     d="m 158.75723,76.74351 0.64,-1.9 a 3.05,3.12 46.8 0 0 0.07,-1.67 q -0.85,-3.51 -1.28,-5.54 c -1.12,-5.26 -7.01,-10.18 -12.31,-10.95 q -0.15,-0.03 -4.42,-0.72 a 1,1 0 0 1 -0.7,-1.5 c 4.17,-6.89 14.35,-4.81 18.68,0.37 2.52,3.01 6.23,8.01 5.75,11.67 a 0.64,0.65 8.3 0 0 0.53,0.72 q 2.58,0.42 4.28,0.69 c 9.21,1.49 18.93,13.29 11.84,21.93 q -1.3,1.58 -3.01,1.35 a 2.35,3.06 1.8 0 1 -2.08,-2.89 c -0.09,-3.68 -0.3,-6.28 -3.09,-8.52 -4.74,-3.81 -8.72,-3.09 -14.28,-2.29 a 0.57,0.57 0 0 1 -0.62,-0.75 z"
     id="path43" />
  <path
     fill="#91ac53"
     d="m 127.73723,67.24351 a 2.22,2.22 0 0 1 -2.85,1.87 q -2.84,-0.87 -5.85,-2.16 c -1.69,-0.72 -3.57,-1.03 -5.26,0.57 q -3.24,3.09 -4.37,6.69 a 2.53,2.53 0 0 1 -3.93,1.27 l -3.4,-2.54 a 0.87,0.86 27.2 0 1 -0.31,-0.96 q 1.7,-5.28 6.33,-10.03 c 4.97,-5.09 10.46,-3.94 16.05,-0.49 q 3.98,2.46 3.59,5.78 z"
     id="path44" />
  <path
     fill="#476e28"
     d="m 9.3372311,132.91351 q 4.8099999,0.23 8.8199999,2.95 4.83,3.28 4.96,3.32 c 5.87,1.87 11.19,-2.87 12.48,-8.52 a 0.48,0.48 0 0 1 0.89,-0.11 c 2.65,5.09 7.05,8.44 10.18,12.66 a 2.88,2.9 63.1 0 0 3.19,1.03 c 1.69,-0.54 3.62,-0.88 5.02,-1.57 q 6.93,-3.41 7.91,-11.67 a 1.84,1.91 34.4 0 0 -0.17,-1.02 q -3.37,-7.15 -4.69,-9.95 c -4.39,-9.36 -1.14,-22.12 10.17,-24.4 q 1.93,-0.38 3.09,0.13 a 0.98,0.98 0 0 1 0.2,1.67 q -4.75,3.64 -6.44,9.23 c -2.2,7.29 1.7,9.27 6.36,14.45 3.51,3.91 7.66,1.28 11.04,-1.37 a 0.3,0.31 71.1 0 1 0.5,0.24 c -0.1,8.57 9.18,7.88 14.47,5.08 q 8.919999,-4.72 16.299999,-12.72 a 1.2,1.19 49.8 0 1 1.88,0.16 q 1.07,1.61 2.55,2.87 7.68,6.51 17.9,4.36 6.91,-1.45 13.03,-4.26 2.48,-1.13 4.35,-2.77 a 0.73,0.72 58.5 0 1 1.16,0.28 q 1.21,3.19 3.96,5.2 a 3.3,3.22 72.3 0 0 0.75,0.4 q 3.26,1.17 10.08,3.86 1.9,0.75 6,0.75 2.93,0 5.53,-2.03 6.71,-5.19 7.27,-14.18 c 0.05,-0.87 -0.42,-1.37 -0.4,-1.77 a 0.47,0.48 11.5 0 1 0.63,-0.42 q 0.09,0.03 6.82,3.45 c 5.5,2.8 9.5,3.82 15.35,2.54 q 1.29,-0.29 3.22,-2.72 a 2.11,2.14 69.4 0 0 0.38,-0.82 q 0.58,-2.66 -2.23,-6.11 c -2.68,-3.3 -1.8,-7.76 0.55,-11.7 3.09,-5.15 5.01,-9.65 6.35,-14.74 a 5.19,5.32 50.6 0 0 0.17,-1.54 q -0.26,-6.92 -3.63,-15.12 2.98,1.24 4.15,2.28 13.66,12.16 9.14,30.09 c -0.72,2.86 -2.03,4.72 -3.25,7.2 q -0.9,1.8 0.43,3.59 a 1.55,1.61 82 0 0 0.76,0.55 c 7.34,2.49 14.2,5.99 18.56,12.63 5.9,9.01 5.14,20.2 -3.13,27.58 q -5.59,4.98 -12.33,5.06 a 2.38,2.42 27.8 0 0 -1.32,0.42 q -1.18,0.79 -1.26,2.67 a 2.28,2.28 0 0 0 0.39,1.37 c 1.98,2.9 3.17,4.52 2.74,8.26 -0.78,6.62 -5.49,12.14 -11.86,14.44 q -8.01,2.89 -16.68,-0.05 a 1.74,1.74 0 0 0 -2.05,0.76 q -8.75,14.82 -26.8,9.57 a 0.45,0.45 0 0 1 -0.17,-0.77 c 8.99,-7.74 15.89,-15.77 19.06,-27.14 a 1.41,1.42 85.8 0 1 0.79,-0.91 q 0.75,-0.33 2.82,-0.71 c 3.65,-0.68 11.9,-4.52 7.97,-9.49 a 2.33,2.32 57.1 0 0 -2.89,-0.62 c -3.14,1.61 -5.46,2.63 -8.32,3.07 a 0.98,0.97 73.1 0 1 -1.03,-0.55 c -1.77,-3.82 -4.06,-6.89 -8.3,-4.13 -11.84,7.71 -23.51,0.05 -29.43,-10.81 -1.67,-3.08 -4.11,-2.24 -6.58,-0.2 -4.04,3.33 -7.7,5.74 -13.19,6.03 -6.62,0.35 -9.12,-1.11 -13.98,-5.36 a 2.61,2.61 0 0 0 -3.7,0.26 c -2.78,3.24 -4.23,5.25 -7.12,7.17 -6.58,4.38 -16.669999,7.32 -23.989999,3.21 q -1.76,-0.99 -5.21,-3.46 a 1.89,1.88 51 0 0 -1.87,-0.2 c -6.4,2.82 1.62,9.99 4.75,11.69 a 0.96,0.95 32.2 0 1 0.32,1.39 q -4.75,6.71 -14.49,9.67 a 3.37,3.37 0 0 0 -1.94,4.9 l 0.22,0.38 a 4.55,4.55 0 0 0 5.74,1.99 l 7.64,-3.23 a 0.87,0.87 0 0 1 1.07,0.34 q 5.51,8.76 13.48,16.21 a 0.72,0.72 0 0 1 -0.26,1.21 c -5.42,1.87 -12.45,2.47 -16.9,-1.85 a 2.06,2.06 0 0 0 -2.41,-0.34 q -12.7,6.77 -25.13,-0.49 c -5.07,-2.96 -10.52,-9.08 -11.54,-15.19 a 1.38,1.4 52.3 0 1 0.11,-0.81 l 1.42,-2.97 a 1.09,1.11 47.2 0 0 0.04,-0.83 q -0.85,-2.41 -2.91,-2.3 -16.84,0.85 -24.92,-12.57 -3.5799999,-5.96 -2.5899999,-14.13 z"
     id="path45" />
  <path
     fill="#7b4319"
     d="m 167.64723,250.71351 -9.09,1.5 q -10.14,-14.19 -13.66,-31.35 -1.27,-6.19 -1.9,-12.45 a 0.13,0.14 85.2 0 0 -0.14,-0.11 h -0.26 a 0.38,0.38 0 0 0 -0.38,0.38 q -0.09,10.12 1.18,20.19 1.58,12.57 7.21,23.79 -2.14,0.8 -4.52,0.47 -1.93,-4.13 -4.14,-8.18 -1.27,-2.33 -1.87,-9.3 -0.63,-7.36 -1.04,-19.74 c -0.14,-4.11 0.28,-6.8 0.73,-11.89 q 0.75,-8.31 -4.46,-13.9 a 1.67,1.67 0 0 1 -0.34,-1.76 q 3.52,-8.96 1.75,-17.4 -0.38,-1.84 -3.1,-5.7 -1.81,-2.56 -3.06,-5.72 -2.56,-6.52 -3.42,-14.03 10.12,1.76 18.11,-2.97 a 0.21,0.2 74.6 0 1 0.31,0.18 q -0.07,12.14 -0.28,17.91 -0.1,2.61 0.6,4.95 a 3.62,3.68 38.4 0 1 0.14,1.31 q -0.24,3.37 -0.03,4.63 c 0.94,5.7 6.28,3.81 9.89,1.91 q 12.42,-6.54 19.12,-18.7 a 1.07,1.04 4.7 0 1 0.61,-0.5 l 7.47,-2.28 a 0.26,0.26 0 0 1 0.33,0.27 c -0.74,8.17 -5.77,15.68 -11.66,21.47 -2.87,2.83 -7.13,7.44 -11.82,11.87 -4.47,4.21 -5.8,7.89 -5.63,14.38 q 0.42,16.14 3.03,25.98 3.11,11.74 5.9,16.79 2.25,4.08 4.42,8 z"
     id="path46" />
  <path
     fill="#476e28"
     d="m 118.01723,162.74351 q -7.91,-2.47 -12.09,-10.28 a 1.38,1.38 0 0 1 0.64,-1.91 q 5.97,-2.71 11.68,-7.29 a 0.33,0.32 70.7 0 1 0.53,0.26 v 18.65 a 0.58,0.59 8.6 0 1 -0.76,0.57 z"
     id="path47" />
  <path
     fill="#a1612b"
     fill-opacity="0.996"
     d="m 127.13723,145.51351 q 0.86,7.51 3.42,14.03 1.25,3.16 3.06,5.72 2.72,3.86 3.1,5.7 1.77,8.44 -1.75,17.4 a 1.67,1.67 0 0 0 0.34,1.76 q 5.21,5.59 4.46,13.9 c -0.45,5.09 -0.87,7.78 -0.73,11.89 q 0.41,12.38 1.04,19.74 0.6,6.97 1.87,9.3 2.21,4.05 4.14,8.18 -2.64,0.61 -5.25,0.74 -11.9,0.63 -23.9,-0.99 3.6,-10.81 3.13,-21.5 a 0.11101802,0.11101802 0 0 0 -0.22,-0.03 q -3.46,10.94 -9.9,21.24 l -14.149999,-1.84 q 16.719999,-25.29 15.389999,-56.05 c -0.26,-6.19 -2.83,-9.68 -7.62,-14.55 -7.329999,-7.42 -11.999999,-11.41 -15.809999,-18.12 a 1.3,1.33 44.8 0 1 0.01,-1.31 l 4.22,-7.31 a 1.01,1.04 15.6 0 1 0.88,-0.51 h 4.1 a 1.47,1.49 82.3 0 1 1.43,1.08 c 2.479999,8.82 9.619999,13.82 18.069999,17.04 q 3.46,1.32 5.03,0.88 c 4.02,-1.14 5.13,-6.8 5.09,-10.53 q -0.09,-7.84 0.55,-15.86 z m -1.73,44.68 a 0.3,0.3 0 0 0 -0.59,-0.02 l -2.76,9.75 a 2.12,2.49 49.6 0 0 -0.09,0.56 c -0.1,3.26 -0.33,7.74 0.95,11.6 q 0.76,2.3 1.05,4.79 a 0.7,0.7 0 0 0 1.02,0.54 c 4.32,-2.27 4.29,-8.94 3.36,-13.07 q -0.32,-1.4 -2.94,-14.15 z m -10.42,38.49 a 0.48,0.49 53.7 0 0 0.87,0.13 q 4.73,-6.97 3.25,-15.88 a 0.3,0.3 0 0 0 -0.56,-0.08 c -1.77,3.61 -4.71,11.88 -3.56,15.83 z"
     id="path48" />
  <path
     fill="#476e28"
     d="m 153.46723,146.51351 a 0.24,0.24 0 0 1 0.41,-0.18 q 5.29,4.97 11.11,7.09 a 0.79,0.79 0 0 1 0.35,1.23 q -4.87,6.23 -11.09,10.21 a 0.51,0.51 0 0 1 -0.78,-0.43 z"
     id="path49" />
  <path
     fill="#7b4319"
     d="m 125.40723,190.19351 q 2.62,12.75 2.94,14.15 c 0.93,4.13 0.96,10.8 -3.36,13.07 a 0.7,0.7 0 0 1 -1.02,-0.54 q -0.29,-2.49 -1.05,-4.79 c -1.28,-3.86 -1.05,-8.34 -0.95,-11.6 a 2.12,2.49 49.6 0 1 0.09,-0.56 l 2.76,-9.75 a 0.3,0.3 0 0 1 0.59,0.02 z"
     id="path50" />
  <path
     fill="#10130a"
     d="m 158.55723,252.21351 c -1.48,4.79 -6.4,4.68 -7.95,0.45 q -5.63,-11.22 -7.21,-23.79 -1.27,-10.07 -1.18,-20.19 a 0.38,0.38 0 0 1 0.38,-0.38 h 0.26 a 0.13,0.14 85.2 0 1 0.14,0.11 q 0.63,6.26 1.9,12.45 3.52,17.16 13.66,31.35 z"
     id="path51" />
  <path
     fill="#7b4319"
     d="m 114.98723,228.68351 c -1.15,-3.95 1.79,-12.22 3.56,-15.83 a 0.3,0.3 0 0 1 0.56,0.08 q 1.48,8.91 -3.25,15.88 a 0.48,0.49 53.7 0 1 -0.87,-0.13 z"
     id="path52" />
  <path
     fill="#10130a"
     d="m 116.93723,252.88351 q -1.54,2.76 -4.7,1.33 -0.79,-0.35 -2.29,-1.62 6.44,-10.3 9.9,-21.24 a 0.11101802,0.11101802 0 0 1 0.22,0.03 q 0.47,10.69 -3.13,21.5 z"
     id="path53" />
  <path
     fill="#5a8334"
     d="m 177.96723,235.85351 q -0.21,4.85 -3.7,8.1 a 0.51,0.51 0 0 1 -0.79,-0.11 l -1.55,-2.69 a 0.75,0.76 54.9 0 1 0.17,-0.96 l 5.42,-4.56 a 0.27,0.27 0 0 1 0.45,0.22 z"
     id="path54" />
  <path
     fill="#5a8334"
     d="m 89.867231,241.87351 q -1.84,1.65 -3.18,2.03 -3.12,-2.97 -3.14,-7.1 a 0.32,0.32 0 0 1 0.58,-0.2 l 1.13,1.53 a 2.91,2.67 88.1 0 0 0.5,0.51 z"
     id="path55" />
  <path
     fill="#476e28"
     d="m 89.867231,241.87351 q 1.52,1.24 -0.86,3.28 a 0.75,0.75 0 0 1 -0.83,0.1 q -1.09,-0.55 -1.49,-1.35 1.34,-0.38 3.18,-2.03 z"
     id="path56" />
  <path
     fill="#5a8334"
     d="m 216.03723,259.01351 q -7.11,1.83 -15.69,2.5 -13.15,1.02 -19,1.26 -42.85,1.76 -85.709999,0.46 l -2.33,-0.05 c -15.85,-0.52 -31.99,-0.86 -47.56,-4.37 l 20.81,-4.72 a 1,1 0 0 1 0.9,0.23 q 2.86,2.54 6.42,1.06 c 3.8,-1.58 0.92,-6.54 -1.2,-8.52 a 0.31,0.31 0 0 1 0.35,-0.51 l 12.68,6.03 a 1.9,1.77 79.6 0 1 0.55,0.41 c 1.02,1.17 2.78,3.49 4.8,3.08 2.58,-0.52 3.56,-3.07 4.74,-5.12 l 14.149999,1.84 q 1.5,1.27 2.29,1.62 3.16,1.43 4.7,-1.33 12,1.62 23.9,0.99 2.61,-0.13 5.25,-0.74 2.38,0.33 4.52,-0.47 c 1.55,4.23 6.47,4.34 7.95,-0.45 l 9.09,-1.5 q -0.54,4.91 4.45,5.05 3.95,0.11 5.36,-3.05 a 1.17,1.2 87.2 0 1 0.5,-0.54 l 11.03,-5.96 a 0.29,0.29 0 0 1 0.38,0.43 q -1.31,1.77 -2.19,4.6 c -0.97,3.1 1.54,5.23 4.37,4.52 q 1.6,-0.4 2.71,-1.16 a 2.78,2.82 35.3 0 1 2.22,-0.4 z"
     id="path57" />
  <path
     fill="#476e28"
     d="m 95.637231,263.23351 -2.33,-0.05 z"
     id="path58" />
  <path
     fill="#0c0600"
     d="m 546.39732,106.28013 q 2.41318,-2.73022 3.10927,-3.41087 c 9.20399,-9.134412 22.90943,-11.238162 35.06802,-7.486972 9.60622,2.9623 17.0545,11.547582 19.96266,21.192422 q 2.60651,8.63939 2.15013,17.76606 c -0.33258,6.67484 -3.58876,10.62714 -11.05251,9.11118 a 0.19336148,0.19336148 0 0 0 -0.14699,0.34796 l 1.70928,1.11376 a 1.9181458,1.7789255 82.7 0 1 0.37907,0.31723 q 3.75898,3.97549 6.00197,9.05703 c 2.76895,6.27266 -1.07508,9.79957 -6.13343,13.24139 -8.0361,5.46053 -18.19147,7.19307 -27.84405,6.05611 q -12.82373,-1.50829 -21.3162,-10.14762 c -5.49144,-5.59203 -9.36642,-13.82919 -10.16305,-21.0532 q -0.74252,-6.78312 0.008,-13.98392 a 0.14726132,0.14726132 0 0 0 -0.28607,-0.0697 q -5.90917,16.26561 -13.97621,37.62043 c -1.48499,3.91363 -4.64839,5.76987 -8.88687,5.95552 q -5.47601,0.24761 -11.79506,-0.054 c -4.11472,-0.20097 -6.63614,-2.1734 -8.07478,-5.98645 q -13.659,-36.22826 -14.57941,-38.71874 a 0.1632579,0.1632579 0 0 0 -0.31723,0.0773 c 2.93138,21.67198 -7.22405,42.20696 -30.21085,46.05872 -11.73317,1.97227 -23.6752,-0.66518 -32.5853,-8.75544 -5.55334,-5.04284 -9.45923,-13.17948 -10.62712,-20.17918 -1.33807,-8.04384 -1.50047,-16.71419 1.00546,-24.83535 a 0.27070607,0.26297161 0.9 0 0 -0.32469,-0.33259 q -2.93133,0.77347 -6.14114,0.23216 c -8.04383,-1.36899 -11.98066,4.32358 -12.05028,11.63263 q -0.20098,19.01129 -0.008,28.98875 0.10794,5.90138 -1.16013,7.96649 -2.30486,3.75892 -7.44832,3.9214 -6.57427,0.20097 -10.96742,-0.17032 c -5.94781,-0.50274 -7.16213,-4.85724 -7.13892,-10.15532 q 0.029,-7.96654 -0.0331,-56.77869 c -0.008,-5.661602 3.24845,-8.500152 8.9333,-8.832732 q 4.75668,-0.27067 9.55979,0.4331 a 0.98227628,1.0132141 68.4 0 1 0.39445,0.16272 l 2.34356,1.66293 a 0.68836684,0.6961013 47.5 0 0 0.76568,0.029 q 10.07802,-6.05608 21.96586,-3.12473 2.56788,0.62647 4.34677,3.32583 c 1.47729,2.235242 1.36899,8.546572 1.00549,11.037052 a 0.27844054,0.27844054 0 0 0 0.47953,0.22429 c 1.15245,-1.28391 2.66841,-3.84403 4.30036,-5.55331 9.43605,-9.900102 23.6365,-12.313282 36.73868,-9.335502 q 8.9333,2.03416 15.1982,7.834982 3.117,2.8927 3.68161,3.72803 a 0.25523714,0.25523714 0 0 0 0.44858,-0.0466 q 0.0776,-0.17765 -0.26334,-1.26075 -0.21671,-0.70382 -0.18551,-1.106 c 0.4098,-6.303612 4.26942,-8.476952 9.96975,-8.716732 7.2085,-0.30186 14.70325,-1.11378 17.56496,7.324532 q 3.71254,10.94421 9.70673,29.6307 a 0.12375135,0.12375135 0 0 0 0.23948,0 c 2.76117,-9.04932 6.11018,-19.31296 9.62166,-29.53014 1.62422,-4.725792 4.68709,-7.092512 9.63711,-7.386442 7.9897,-0.47953 18.63233,-0.72704 17.08545,10.812782 a 0.18562702,0.19336148 69.3 0 0 0.33259,0.14699 z m 11.31553,31.25496 40.52082,-0.18551 a 1.7557222,1.7634566 7.4 0 0 1.69381,-1.29937 q 0.39445,-1.4618 0.35586,-4.36224 c -0.18551,-14.81924 -6.07154,-28.78766 -22.37577,-31.2627 -15.07448,-2.297132 -27.77446,5.80856 -31.97427,20.52724 -5.56884,19.50633 0.36332,42.52409 23.14921,46.06648 9.42834,1.4618 20.92173,-0.7348 28.01421,-7.65715 a 2.1501797,2.1501797 0 0 0 0.35586,-2.62195 l -3.14795,-5.39869 a 0.95907289,0.95133848 56.2 0 0 -1.40765,-0.27859 q -7.98198,6.04059 -17.76607,5.4605 c -10.76638,-0.63422 -16.92299,-8.20626 -17.80472,-18.55495 a 0.38672296,0.38672296 0 0 1 0.38696,-0.43312 z m -145.30736,-4.71804 c -0.59555,19.35164 9.3278,33.90789 29.76995,34.53441 20.44995,0.63421 31.25498,-13.28009 31.85053,-32.63168 0.59553,-19.35168 -9.32777,-33.9079 -29.76994,-34.5344 -20.44991,-0.634232 -31.25496,13.28009 -31.85054,32.63167 z m -29.98645,-23.07961 q -0.35583,-2.56012 -1.12924,-5.05832 -0.68066,-2.21983 -3.50374,-2.34356 -4.21529,-0.17818 -7.5256,0.13914 a 1.1601689,1.1679033 0.7 0 0 -1.05189,1.02869 q -0.23216,1.90265 -0.21671,3.94455 0.10795,18.1605 0.0163,55.70358 -0.008,2.51369 2.50599,2.56788 6.16437,0.13154 10.07799,-0.20097 a 1.2375135,1.2297789 87.4 0 0 1.12151,-1.22978 q 0,-23.46633 -0.0136,-32.9101 c -0.0163,-6.84505 2.19656,-12.77741 8.02065,-16.76062 4.14564,-2.84628 8.53109,-2.15018 13.64357,-1.75568 a 1.1988411,1.1988411 0 0 0 1.28392,-1.0674 q 0.36371,-3.55783 0.14699,-8.01289 c -0.0697,-1.35353 -0.71155,-2.35129 -2.0574,-2.63745 -9.24264,-1.933592 -15.34516,1.59331 -20.8366,8.72446 a 0.27070607,0.27070607 0 0 1 -0.47952,-0.13153 z m 127.13132,56.11352 q 3.29488,-0.008 5.86272,-0.26334 1.89496,-0.18551 2.57561,-2.04965 10.83592,-29.36001 21.24653,-56.77864 0.78117,-2.05738 0.51047,-3.31809 a 1.7557222,1.7634566 84 0 0 -1.70933,-1.37673 l -9.74541,-0.054 a 2.645185,2.6219816 17.4 0 0 -2.18113,1.12922 q -0.92811,1.33033 -1.60874,3.48052 -5.88592,18.5163 -14.827,44.97588 a 0.03093781,0.15468918 17.2 0 1 -0.0618,0.12367 q -0.0375,0.008 -0.0852,0.008 -0.0374,0 -0.0773,-0.008 a 0.15468918,0.03093781 72.6 0 1 -0.0619,-0.12367 q -9.0261,-26.42866 -14.97391,-44.92947 -0.68839,-2.14246 -1.6165,-3.4728 a 2.6219816,2.645185 72.4 0 0 -2.18886,-1.12148 l -9.74541,0.0852 a 1.7634566,1.7557222 5.8 0 0 -1.7016,1.38448 q -0.27067,1.26069 0.5182,3.31031 10.50339,27.38774 21.43223,56.71684 0.6806,1.85624 2.57555,2.03416 2.57557,0.24761 5.86268,0.24761 z m 82.56537,-21.9504 -26.13478,0.054 a 0.29390946,0.29390946 0 0 0 -0.25521,0.44091 c 1.94132,3.65063 5.22075,5.59974 9.40507,5.87041 q 5.2904,0.32469 9.18853,-1.28391 c 2.61428,-1.09057 5.25948,-3.51915 7.83503,-4.92684 a 0.08507906,0.08507906 0 0 0 -0.0374,-0.15459 z"
     id="path235"
     style="stroke-width:0.773449" />
  <g
     id="g9"
     transform="matrix(2.7121058,0,0,2.7121058,63.941476,-319.58184)">
    <path
       fill="#0c0600"
       d="m 98.885529,181.10347 a 0.06844387,0.06844387 0 0 0 -0.0856,-0.077 q -3.10278,0.88977 -6.28827,0.0913 c -4.91656,-1.22913 -8.30453,-5.0791 -9.0888,-10.05839 -0.73577,-4.67986 -0.33935,-9.9757 2.60374,-13.89411 q 3.68456,-4.908 10.13824,-4.78537 2.9659,0.057 4.990711,1.26906 a 0.24810904,0.25381268 43.6 0 0 0.27092,-0.009 q 0.70156,-0.46485 0.92113,-0.50478 1.98774,-0.37645 3.93269,-0.0856 c 2.64648,0.3964 2.89174,2.21016 2.8832,4.54581 q -0.0107,2.86324 -0.0228,21.24326 0,1.41167 -0.53616,3.55909 c -1.13503,4.55152 -4.16365,7.67426 -8.797871,8.85208 -4.30343,1.09223 -9.3312,0.43061 -13.2924,-1.52289 q -0.91257,-0.45343 -1.45443,-1.10935 c -1.07798,-1.30614 -0.10548,-3.9783 0.69015,-5.58673 0.7814,-1.57707 1.75102,-2.95165 3.53056,-2.20446 2.77199,1.16639 6.76739,3.11419 9.42814,0.62739 q 0.13978,-0.13396 0.17683,-0.35076 z m 2.897471,-4.7255 q 0,0.009 -0.0741,2.30715 -0.0513,1.51717 -0.27948,2.2729 -1.16354,3.87849 -5.618101,4.02962 c -2.5581,0.0883 -4.58005,-0.70439 -6.88146,-1.77952 q -0.55326,-0.25667 -0.86696,0.34791 -0.73293,1.41736 -1.10651,2.8946 a 0.76428987,0.76143805 23.9 0 0 0.3194,0.82419 c 2.83758,1.87364 6.77594,2.37842 10.04129,2.0476 6.818721,-0.69298 9.590691,-5.71504 9.553631,-12.04897 q -0.0599,-10.19814 -0.006,-19.8915 0.006,-1.05232 -0.0969,-1.43446 a 0.70725332,0.71010515 82.7 0 0 -0.68158,-0.52475 l -2.8661,-0.0138 a 0.52188451,0.51618085 24.3 0 0 -0.33935,0.12554 q -0.63598,0.55324 -0.90119,1.53142 a 0.18251698,0.18251698 0 0 1 -0.31084,0.0741 c -1.14074,-1.24056 -2.754881,-2.11321 -4.491631,-2.27292 -4.06671,-0.37358 -7.53739,0.88694 -9.74186,4.48594 -2.05047,3.35089 -2.33565,8.18475 -1.54283,11.86076 0.55609,2.59231 2.07041,5.2274 4.41464,6.56205 3.07997,1.75388 7.40619,2.13603 10.260871,-0.3907 q 0.67018,-0.59317 1.06659,-1.05232 a 0.08555483,0.08555483 0 0 1 0.14835,0.0456 z"
       id="path236"
       style="stroke-width:0.285183" />
    <path
       fill="#b35109"
       d="m 182.06198,168.54686 a 0.1425914,0.1425914 0 0 0 -0.14268,0.15971 c 0.32511,3.81574 2.59516,6.60768 6.56492,6.84153 q 3.60755,0.21389 6.55064,-2.0134 a 0.35362666,0.35077483 56.2 0 1 0.51903,0.10273 l 1.1607,1.99057 a 0.79280817,0.79280817 0 0 1 -0.1312,0.96677 c -2.61513,2.55239 -6.85294,3.3623 -10.32933,2.82331 -8.40147,-1.30612 -10.58883,-9.79316 -8.53551,-16.98548 1.54854,-5.42703 6.23125,-8.41575 11.78947,-7.56876 6.01164,0.91259 8.18188,6.06299 8.25032,11.52709 q 0.0138,1.06944 -0.1312,1.60843 a 0.64736494,0.65021675 7.4 0 1 -0.62455,0.47911 z m 0.23384,-3.55907 10.70576,-0.0171 a 0.07985117,0.07985117 0 0 0 0.0799,-0.0799 v -0.12263 a 6.048727,5.4327321 89.9 0 0 -5.44415,-6.04016 6.048727,5.4327321 89.9 0 0 -5.42132,6.05728 v 0.12263 a 0.07985117,0.07985117 0 0 0 0.0799,0.0799 z"
       id="path237"
       style="stroke-width:0.285183" />
    <path
       fill="#b35109"
       d="m 101.63471,176.33235 q -0.39641,0.45915 -1.06659,1.05232 c -2.854681,2.52673 -7.180901,2.14459 -10.260871,0.39071 -2.34421,-1.33465 -3.85855,-3.96974 -4.41464,-6.56206 -0.79282,-3.67601 -0.50763,-8.50985 1.54283,-11.86076 2.20448,-3.599 5.67515,-4.85952 9.74186,-4.48592 1.73675,0.1597 3.350891,1.03236 4.491631,2.27292 a 0.18251698,0.18251698 0 0 0 0.31084,-0.0741 q 0.26521,-0.9782 0.90119,-1.53144 a 0.52188451,0.51618085 24.3 0 1 0.33937,-0.12554 l 2.86608,0.0138 a 0.70725332,0.71010515 82.7 0 1 0.68159,0.52474 q 0.10257,0.38214 0.0969,1.43446 -0.0542,9.69336 0.006,19.8915 c 0.0371,6.33393 -2.73491,11.35599 -9.553631,12.04899 -3.26534,0.3308 -7.20371,-0.17398 -10.04129,-2.04762 a 0.76428987,0.76143805 23.9 0 1 -0.3194,-0.82419 q 0.37358,-1.47724 1.10651,-2.8946 0.3137,-0.60458 0.86696,-0.34791 c 2.30143,1.07513 4.32336,1.86794 6.88146,1.77954 q 4.454561,-0.15111 5.618111,-4.02964 0.22814,-0.75573 0.27947,-2.2729 0.0741,-2.29857 0.0741,-2.30713 a 0.08555483,0.08555483 0 0 0 -0.14835,-0.0456 z m -10.888291,-9.42244 c -0.0343,3.77012 0.91829,8.04785 5.60955,8.09064 4.691251,0.0429 5.720761,-4.21501 5.757841,-7.98511 0.0343,-3.77298 -0.91829,-8.04787 -5.609551,-8.09351 -4.69125,-0.0427 -5.72076,4.21502 -5.75784,7.98798 z"
       id="path239"
       style="stroke-width:0.285183" />
    <path
       fill="#b35109"
       d="m 140.2285,154.77538 c 7.53738,0.231 11.19627,5.59813 10.97669,12.73343 -0.21959,7.13526 -4.20359,12.2657 -11.74384,12.03186 -7.53737,-0.23101 -11.19628,-5.59815 -10.97669,-12.73343 0.2196,-7.13526 4.20361,-12.26571 11.74384,-12.03186 z m -6.72461,12.39404 c 0.009,4.07813 1.5628,8.16479 6.34531,8.15623 4.78251,-0.009 6.31964,-4.10377 6.31395,-8.18189 -0.009,-4.07526 -1.56279,-8.16478 -6.34532,-8.15623 -4.78252,0.0107 -6.3225,4.10378 -6.31394,8.18189 z"
       id="path240"
       style="stroke-width:0.285183" />
    <path
       fill="#b35109"
       d="m 117.42814,158.29739 a 0.09981398,0.09981398 0 0 0 0.17681,0.0485 c 2.02479,-2.62938 4.27488,-3.92981 7.68282,-3.21687 0.49623,0.10548 0.73291,0.47342 0.75859,0.97248 q 0.0799,1.64265 -0.0542,2.9545 a 0.44203332,0.44203332 0 0 1 -0.4734,0.39355 c -1.88506,-0.14544 -3.50205,-0.40211 -5.03062,0.64737 -2.14744,1.46869 -2.96306,3.65604 -2.95735,6.17991 q 0.006,3.48208 0.006,12.13452 a 0.45629247,0.45344062 87.4 0 1 -0.41353,0.45346 q -1.44302,0.12263 -3.71592,0.0741 -0.92684,-0.0199 -0.924,-0.94681 0.0343,-13.84277 -0.006,-20.53886 -0.006,-0.75289 0.0799,-1.45443 a 0.42777419,0.43062602 0.7 0 1 0.38785,-0.3793 q 1.22057,-0.11696 2.77482,-0.0513 1.04092,0.0456 1.29187,0.86409 0.28519,0.92115 0.41638,1.86511 z"
       id="path242"
       style="stroke-width:0.285183" />
    <path
       fill="#b35109"
       d="m 164.29508,173.77998 q 0.0171,0 0.0314,-0.003 a 0.0114073,0.05703656 17.2 0 0 0.0228,-0.0456 q 3.29672,-9.7561 5.46697,-16.58337 0.25095,-0.79281 0.59317,-1.28333 a 0.97532515,0.96676966 17.4 0 1 0.80423,-0.41636 l 3.59329,0.0199 a 0.64736494,0.65021675 84 0 1 0.63025,0.50763 q 0.0998,0.46485 -0.18822,1.22343 -3.83856,10.10973 -7.83396,20.93527 -0.25097,0.6873 -0.94967,0.75575 -0.94679,0.0941 -2.16169,0.0971 -1.21201,0 -2.16167,-0.0913 -0.6987,-0.0657 -0.94967,-0.75003 -4.02963,-10.81413 -7.90241,-20.91246 -0.29088,-0.75573 -0.19108,-1.22058 a 0.65021675,0.64736494 5.8 0 1 0.62742,-0.51048 l 3.5933,-0.0314 a 0.96676966,0.97532515 72.4 0 1 0.80707,0.4135 q 0.34221,0.49054 0.59603,1.28048 2.19304,6.82158 5.52114,16.56628 a 0.05703656,0.0114073 72.6 0 0 0.0228,0.0456 q 0.0138,0.003 0.0285,0.003 z"
       id="path243"
       style="stroke-width:0.285183" />
    <path
       fill="#0c0600"
       d="m 182.29582,164.98779 a 0.07985117,0.07985117 0 0 1 -0.0799,-0.0799 v -0.12263 a 6.048727,5.4327321 89.9 0 1 5.42132,-6.0573 6.048727,5.4327321 89.9 0 1 5.44414,6.04018 v 0.12263 a 0.07985117,0.07985117 0 0 1 -0.0799,0.0799 z m 3.14272,-2.20162 4.6884,-0.0513 a 0.00855549,0.00855549 0 0 0 0.009,-0.009 v -0.0171 a 1.5998755,2.3099806 89.4 0 0 -2.32707,-1.57421 h -0.0856 a 1.5998755,2.3099806 89.4 0 0 -2.29286,1.62555 v 0.0171 a 0.00855549,0.00855549 0 0 0 0.009,0.009 z"
       id="path245"
       style="stroke-width:0.285183" />
    <path
       fill="#0c0600"
       d="m 96.504259,158.92193 c 4.691261,0.0456 5.643781,4.32053 5.609551,8.09351 -0.037,3.7701 -1.06659,8.02789 -5.757841,7.98511 -4.69126,-0.0429 -5.64378,-4.32052 -5.60955,-8.09064 0.0371,-3.77296 1.06659,-8.03075 5.75784,-7.98798 z m -3.38511,8.04216 q -0.0138,2.11322 0.2424,2.90316 0.90972,2.80906 3.0372,2.82617 2.12747,0.0138 3.07998,-2.78338 0.26806,-0.78425 0.28231,-2.89746 0.0138,-2.11321 -0.24239,-2.90317 -0.90973,-2.80904 -3.04005,-2.82331 -2.12747,-0.0171 -3.07713,2.78054 -0.26807,0.78425 -0.28232,2.89745 z"
       id="path246"
       style="stroke-width:0.285183" />
    <path
       fill="#0c0600"
       d="m 139.81783,158.98753 c 4.78253,-0.009 6.33676,4.08097 6.34532,8.15623 0.006,4.07812 -1.53144,8.17333 -6.31395,8.18189 -4.78251,0.009 -6.33676,-4.0781 -6.34531,-8.15623 -0.009,-4.07811 1.53142,-8.17048 6.31394,-8.18189 z m -3.89845,8.17335 c -0.006,2.55522 0.60174,5.80917 3.90416,5.81487 3.30241,0.006 3.91841,-3.24823 3.9241,-5.80346 0.003,-2.55239 -0.60173,-5.80919 -3.90413,-5.81489 -3.30243,-0.006 -3.92127,3.24824 -3.92413,5.80348 z"
       id="path247"
       style="stroke-width:0.285183" />
  </g>
</svg>
